<svg xmlns="http://www.w3.org/2000/svg" width="306" height="222" viewBox="0 0 306 222"><defs><filter id="s-secao-frota" x="-20%" y="-20%" width="140%" height="150%"><feGaussianBlur stdDeviation="5"/></filter><clipPath id="c-secao-frota"><rect x="8" y="8" width="290" height="206" rx="18"/></clipPath></defs><rect x="10" y="13" width="286" height="204" rx="18" fill="#0F172A" opacity="0.10" filter="url(#s-secao-frota)"/><rect x="8" y="8" width="290" height="206" rx="18" fill="#FFFFFF" stroke="#E2E8F0"/><rect x="8" y="8" width="290" height="5" fill="#FFC72C" clip-path="url(#c-secao-frota)"/><rect x="26" y="30" width="52" height="52" rx="14" fill="#E7EEFA"/><g transform="translate(39 43) scale(1.0833333333333333)" fill="none" stroke="#0B4DA2" stroke-width="2" stroke-linecap="round" stroke-linejoin="round"><path d="M2.5 16V9h6l2.5 4h3v3"/><path d="M17 3v14"/><path d="M17 17h5"/><circle cx="5.5" cy="18" r="2"/><circle cx="12" cy="18" r="2"/></g><rect x="214" y="43" width="66" height="26" rx="13" fill="#FFF4D6"/><text x="247" y="60" font-family="'Segoe UI', Arial, sans-serif" font-size="12" font-weight="600" fill="#7A5600" text-anchor="middle" textLength="45" lengthAdjust="spacingAndGlyphs">1 página</text><text x="26" y="112" font-family="'Segoe UI', Arial, sans-serif" font-size="21" font-weight="700" fill="#0F172A"  textLength="52" lengthAdjust="spacingAndGlyphs">Frota</text><text x="26" y="136" font-family="'Segoe UI', Arial, sans-serif" font-size="13.5" font-weight="400" fill="#475569"  textLength="214" lengthAdjust="spacingAndGlyphs">Horas de motor e gás das máquinas</text><text x="26" y="162" font-family="'Segoe UI', Arial, sans-serif" font-size="12.5" font-weight="600" fill="#0B4DA2"  textLength="74" lengthAdjust="spacingAndGlyphs">Empilhadeira</text><text x="280" y="200" font-family="'Segoe UI', Arial, sans-serif" font-size="13" font-weight="700" fill="#0B4DA2" text-anchor="end" textLength="46" lengthAdjust="spacingAndGlyphs">Abrir →</text></svg>
