<svg xmlns="http://www.w3.org/2000/svg" width="404" height="148" viewBox="0 0 404 148"><defs><filter id="s-secao-du" x="-20%" y="-20%" width="140%" height="150%"><feGaussianBlur stdDeviation="5"/></filter><clipPath id="c-secao-du"><rect x="8" y="8" width="388" height="132" rx="18"/></clipPath></defs><rect x="10" y="13" width="384" height="130" rx="18" fill="#0F172A" opacity="0.10" filter="url(#s-secao-du)"/><rect x="8" y="8" width="388" height="132" rx="18" fill="#FFFFFF" stroke="#E2E8F0"/><rect x="8" y="8" width="388" height="5" fill="#FFC72C" clip-path="url(#c-secao-du)"/><rect x="26" y="30" width="52" height="52" rx="14" fill="#E7EEFA"/><g transform="translate(39 43) scale(1.0833333333333333)" fill="none" stroke="#0B4DA2" stroke-width="2" stroke-linecap="round" stroke-linejoin="round"><path d="M1.5 5.5h11.5v10.5H1.5z"/><path d="M13 9h4.5l3.5 3.5V16H13z"/><circle cx="5.5" cy="17.5" r="2"/><circle cx="17" cy="17.5" r="2"/></g><rect x="305" y="28" width="73" height="26" rx="13" fill="#FFF4D6"/><text x="341.5" y="45" font-family="'Segoe UI', Arial, sans-serif" font-size="12" font-weight="600" fill="#7A5600" text-anchor="middle" textLength="52" lengthAdjust="spacingAndGlyphs">3 páginas</text><text x="94" y="48" font-family="'Segoe UI', Arial, sans-serif" font-size="20" font-weight="700" fill="#0F172A"  textLength="188" lengthAdjust="spacingAndGlyphs">Distribuição Urbana</text><text x="94" y="72" font-family="'Segoe UI', Arial, sans-serif" font-size="13.5" font-weight="400" fill="#475569"  textLength="175" lengthAdjust="spacingAndGlyphs">Feedback da rota e causa raiz</text><text x="94" y="98" font-family="'Segoe UI', Arial, sans-serif" font-size="12.5" font-weight="600" fill="#0B4DA2"  textLength="205" lengthAdjust="spacingAndGlyphs">Feedback da Rota · 5 Porquês · Cada</text><text x="94" y="115" font-family="'Segoe UI', Arial, sans-serif" font-size="12.5" font-weight="600" fill="#0B4DA2"  textLength="39" lengthAdjust="spacingAndGlyphs">análise</text><text x="378" y="126" font-family="'Segoe UI', Arial, sans-serif" font-size="13" font-weight="700" fill="#0B4DA2" text-anchor="end" textLength="46" lengthAdjust="spacingAndGlyphs">Abrir →</text></svg>
